<?xml version="1.0" encoding="UTF-8"?>
<!DOCTYPE svg PUBLIC "-//W3C//DTD SVG 1.1//EN" "http://www.w3.org/Graphics/SVG/1.1/DTD/svg11.dtd">
<svg xmlns="http://www.w3.org/2000/svg" version="1.1" width="36px" height="32px" style="shape-rendering:geometricPrecision; text-rendering:geometricPrecision; image-rendering:optimizeQuality; fill-rule:evenodd; clip-rule:evenodd" xmlns:xlink="http://www.w3.org/1999/xlink">
<g><path style="opacity:1" fill="#febf02" d="M -0.5,-0.5 C 11.5,-0.5 23.5,-0.5 35.5,-0.5C 35.5,1.5 35.5,3.5 35.5,5.5C 23.5,5.5 11.5,5.5 -0.5,5.5C -0.5,3.5 -0.5,1.5 -0.5,-0.5 Z"/></g>
<g><path style="opacity:1" fill="#febf02" d="M -0.5,12.5 C 11.5,12.5 23.5,12.5 35.5,12.5C 35.5,14.5 35.5,16.5 35.5,18.5C 23.5,18.5 11.5,18.5 -0.5,18.5C -0.5,16.5 -0.5,14.5 -0.5,12.5 Z"/></g>
<g><path style="opacity:1" fill="#febf02" d="M -0.5,25.5 C 11.5,25.5 23.5,25.5 35.5,25.5C 35.5,27.5 35.5,29.5 35.5,31.5C 23.5,31.5 11.5,31.5 -0.5,31.5C -0.5,29.5 -0.5,27.5 -0.5,25.5 Z"/></g>
</svg>
